<svg width="25" height="25" viewBox="0 0 25 25" fill="none" xmlns="http://www.w3.org/2000/svg">
<g clip-path="url(#clip0_33_66)">
<path d="M6.24984 10.4167C5.104 10.4167 4.1665 11.3542 4.1665 12.5C4.1665 13.6458 5.104 14.5833 6.24984 14.5833C7.39567 14.5833 8.33317 13.6458 8.33317 12.5C8.33317 11.3542 7.39567 10.4167 6.24984 10.4167ZM18.7498 10.4167C17.604 10.4167 16.6665 11.3542 16.6665 12.5C16.6665 13.6458 17.604 14.5833 18.7498 14.5833C19.8957 14.5833 20.8332 13.6458 20.8332 12.5C20.8332 11.3542 19.8957 10.4167 18.7498 10.4167ZM12.4998 10.4167C11.354 10.4167 10.4165 11.3542 10.4165 12.5C10.4165 13.6458 11.354 14.5833 12.4998 14.5833C13.6457 14.5833 14.5832 13.6458 14.5832 12.5C14.5832 11.3542 13.6457 10.4167 12.4998 10.4167Z" fill="black"/>
</g>
<defs>
<clipPath id="clip0_33_66">
<rect width="25" height="25" fill="white"/>
</clipPath>
</defs>
</svg>
